<svg xmlns="http://www.w3.org/2000/svg" viewBox="0 0 120 90"><defs>
<linearGradient id="m" x1="0" y1="0" x2="0" y2="1"><stop offset="0" stop-color="#e9edf3"/><stop offset=".5" stop-color="#9aa4b4"/><stop offset="1" stop-color="#5b6577"/></linearGradient>
<linearGradient id="d" x1="0" y1="0" x2="0" y2="1"><stop offset="0" stop-color="#4a5262"/><stop offset="1" stop-color="#232833"/></linearGradient>
<linearGradient id="o" x1="0" y1="0" x2="0" y2="1"><stop offset="0" stop-color="#ffb94a"/><stop offset="1" stop-color="#d9770d"/></linearGradient>
<linearGradient id="c" x1="0" y1="0" x2="0" y2="1"><stop offset="0" stop-color="#f0b57a"/><stop offset="1" stop-color="#a8581f"/></linearGradient>
<radialGradient id="g" cx=".5" cy=".5" r=".5"><stop offset="0" stop-color="#e8a020" stop-opacity=".28"/><stop offset="1" stop-color="#e8a020" stop-opacity="0"/></radialGradient>
</defs><ellipse cx="60" cy="48" rx="52" ry="38" fill="url(#g)"/><rect x="24" y="44" width="78" height="26" rx="13" fill="url(#m)" stroke="#10131a" stroke-width="1.6" stroke-linejoin="round" stroke-linecap="round"/><rect x="30" y="54" width="66" height="5" fill="url(#o)"/><rect x="38" y="26" width="36" height="20" rx="3" fill="url(#d)" stroke="#10131a" stroke-width="1.6" stroke-linejoin="round" stroke-linecap="round"/><rect x="44" y="30" width="24" height="3" fill="#9aa4b4"/><rect x="44" y="36" width="24" height="3" fill="#9aa4b4"/><circle cx="86" cy="34" r="9" fill="#e9edf3" stroke="#10131a" stroke-width="1.6" stroke-linejoin="round" stroke-linecap="round"/><path d="M86 34 L90 29" stroke="#d63a2f" stroke-width="2"/><rect x="34" y="70" width="6" height="8" fill="#232833"/><rect x="88" y="70" width="6" height="8" fill="#232833"/><rect x="82" y="44" width="8" height="4" fill="#5b6577"/></svg>