<svg xmlns="http://www.w3.org/2000/svg" viewBox="0 0 120 90"><defs>
<linearGradient id="m" x1="0" y1="0" x2="0" y2="1"><stop offset="0" stop-color="#e9edf3"/><stop offset=".5" stop-color="#9aa4b4"/><stop offset="1" stop-color="#5b6577"/></linearGradient>
<linearGradient id="d" x1="0" y1="0" x2="0" y2="1"><stop offset="0" stop-color="#4a5262"/><stop offset="1" stop-color="#232833"/></linearGradient>
<linearGradient id="o" x1="0" y1="0" x2="0" y2="1"><stop offset="0" stop-color="#ffb94a"/><stop offset="1" stop-color="#d9770d"/></linearGradient>
<linearGradient id="c" x1="0" y1="0" x2="0" y2="1"><stop offset="0" stop-color="#f0b57a"/><stop offset="1" stop-color="#a8581f"/></linearGradient>
<radialGradient id="g" cx=".5" cy=".5" r=".5"><stop offset="0" stop-color="#e8a020" stop-opacity=".28"/><stop offset="1" stop-color="#e8a020" stop-opacity="0"/></radialGradient>
</defs><ellipse cx="60" cy="48" rx="52" ry="38" fill="url(#g)"/><rect x="14" y="30" width="92" height="46" rx="6" fill="url(#d)" stroke="#10131a" stroke-width="1.6" stroke-linejoin="round" stroke-linecap="round"/><rect x="14" y="30" width="92" height="12" rx="6" fill="url(#o)" stroke="#10131a" stroke-width="1.6" stroke-linejoin="round" stroke-linecap="round"/><rect x="46" y="22" width="28" height="12" rx="4" fill="none" stroke="#9aa4b4" stroke-width="3"/><g fill="url(#m)" stroke="#10131a" stroke-width="1.6" stroke-linejoin="round" stroke-linecap="round"><rect x="22" y="50" width="20" height="10" rx="2"/><rect x="48" y="50" width="20" height="10" rx="2"/><rect x="74" y="50" width="24" height="10" rx="2"/><rect x="22" y="63" width="30" height="8" rx="2"/><rect x="58" y="63" width="40" height="8" rx="2"/></g></svg>