<svg xmlns="http://www.w3.org/2000/svg" viewBox="0 0 120 90"><defs>
<linearGradient id="m" x1="0" y1="0" x2="0" y2="1"><stop offset="0" stop-color="#e9edf3"/><stop offset=".5" stop-color="#9aa4b4"/><stop offset="1" stop-color="#5b6577"/></linearGradient>
<linearGradient id="d" x1="0" y1="0" x2="0" y2="1"><stop offset="0" stop-color="#4a5262"/><stop offset="1" stop-color="#232833"/></linearGradient>
<linearGradient id="o" x1="0" y1="0" x2="0" y2="1"><stop offset="0" stop-color="#ffb94a"/><stop offset="1" stop-color="#d9770d"/></linearGradient>
<linearGradient id="c" x1="0" y1="0" x2="0" y2="1"><stop offset="0" stop-color="#f0b57a"/><stop offset="1" stop-color="#a8581f"/></linearGradient>
<radialGradient id="g" cx=".5" cy=".5" r=".5"><stop offset="0" stop-color="#e8a020" stop-opacity=".28"/><stop offset="1" stop-color="#e8a020" stop-opacity="0"/></radialGradient>
</defs><ellipse cx="60" cy="48" rx="52" ry="38" fill="url(#g)"/><ellipse cx="72" cy="66" rx="20" ry="7" fill="url(#d)" stroke="#10131a" stroke-width="1.6" stroke-linejoin="round" stroke-linecap="round"/><rect x="52" y="22" width="40" height="44" fill="url(#c)" stroke="#10131a" stroke-width="1.6" stroke-linejoin="round" stroke-linecap="round"/><g stroke="#7a3d10" stroke-width="1.4"><path d="M58 24V66M64 24V66M70 24V66M76 24V66M82 24V66M88 24V66"/></g><ellipse cx="72" cy="22" rx="20" ry="7" fill="url(#m)" stroke="#10131a" stroke-width="1.6" stroke-linejoin="round" stroke-linecap="round"/><ellipse cx="72" cy="22" rx="10" ry="3.5" fill="#232833"/><g fill="#5ac8fa" stroke="#10131a" stroke-width="1.2"><path d="M10 34h22l-4-5 12 8-12 8 4-5H10z"/><path d="M14 52h26l-4-5 12 8-12 8 4-5H14z"/></g></svg>