<svg xmlns="http://www.w3.org/2000/svg" viewBox="0 0 120 90"><defs>
<linearGradient id="m" x1="0" y1="0" x2="0" y2="1"><stop offset="0" stop-color="#e9edf3"/><stop offset=".5" stop-color="#9aa4b4"/><stop offset="1" stop-color="#5b6577"/></linearGradient>
<linearGradient id="d" x1="0" y1="0" x2="0" y2="1"><stop offset="0" stop-color="#4a5262"/><stop offset="1" stop-color="#232833"/></linearGradient>
<linearGradient id="o" x1="0" y1="0" x2="0" y2="1"><stop offset="0" stop-color="#ffb94a"/><stop offset="1" stop-color="#d9770d"/></linearGradient>
<linearGradient id="c" x1="0" y1="0" x2="0" y2="1"><stop offset="0" stop-color="#f0b57a"/><stop offset="1" stop-color="#a8581f"/></linearGradient>
<radialGradient id="g" cx=".5" cy=".5" r=".5"><stop offset="0" stop-color="#e8a020" stop-opacity=".28"/><stop offset="1" stop-color="#e8a020" stop-opacity="0"/></radialGradient>
</defs><ellipse cx="60" cy="48" rx="52" ry="38" fill="url(#g)"/><path d="M14 36 L50 18 L98 18 L62 36Z" fill="#e9edf3" stroke="#10131a" stroke-width="1.6" stroke-linejoin="round" stroke-linecap="round"/><path d="M14 36 L62 36 L62 42 L14 42Z" fill="#9aa4b4" stroke="#10131a" stroke-width="1.6" stroke-linejoin="round" stroke-linecap="round"/><path d="M14 42H62V54H48V48H28V54H14Z" fill="#7b8596" stroke="#10131a" stroke-width="1.6" stroke-linejoin="round" stroke-linecap="round"/><rect x="24" y="52" width="58" height="12" rx="6" fill="url(#c)" stroke="#10131a" stroke-width="1.6" stroke-linejoin="round" stroke-linecap="round"/><ellipse cx="82" cy="58" rx="6" ry="6" fill="#f0b57a" stroke="#10131a" stroke-width="1.6" stroke-linejoin="round" stroke-linecap="round"/><rect x="62" y="38" width="36" height="34" rx="2" fill="url(#m)" stroke="#10131a" stroke-width="1.6" stroke-linejoin="round" stroke-linecap="round"/><ellipse cx="62" cy="55" rx="8" ry="17" fill="#e9edf3" stroke="#10131a" stroke-width="1.6" stroke-linejoin="round" stroke-linecap="round"/><ellipse cx="62" cy="55" rx="3" ry="7" fill="#232833"/></svg>