<svg xmlns="http://www.w3.org/2000/svg" viewBox="0 0 120 90"><defs>
<linearGradient id="m" x1="0" y1="0" x2="0" y2="1"><stop offset="0" stop-color="#e9edf3"/><stop offset=".5" stop-color="#9aa4b4"/><stop offset="1" stop-color="#5b6577"/></linearGradient>
<linearGradient id="d" x1="0" y1="0" x2="0" y2="1"><stop offset="0" stop-color="#4a5262"/><stop offset="1" stop-color="#232833"/></linearGradient>
<linearGradient id="o" x1="0" y1="0" x2="0" y2="1"><stop offset="0" stop-color="#ffb94a"/><stop offset="1" stop-color="#d9770d"/></linearGradient>
<linearGradient id="c" x1="0" y1="0" x2="0" y2="1"><stop offset="0" stop-color="#f0b57a"/><stop offset="1" stop-color="#a8581f"/></linearGradient>
<radialGradient id="g" cx=".5" cy=".5" r=".5"><stop offset="0" stop-color="#e8a020" stop-opacity=".28"/><stop offset="1" stop-color="#e8a020" stop-opacity="0"/></radialGradient>
</defs><ellipse cx="60" cy="48" rx="52" ry="38" fill="url(#g)"/><rect x="16" y="36" width="88" height="40" rx="6" fill="#c9342b" stroke="#10131a" stroke-width="1.6" stroke-linejoin="round" stroke-linecap="round"/><rect x="16" y="36" width="88" height="12" rx="6" fill="#e0483d" stroke="#10131a" stroke-width="1.6" stroke-linejoin="round" stroke-linecap="round"/><path d="M42 36 V26 Q42 22 46 22 H74 Q78 22 78 26 V36" fill="none" stroke="#9aa4b4" stroke-width="5" stroke-linecap="round"/><rect x="50" y="46" width="20" height="10" rx="2" fill="url(#m)" stroke="#10131a" stroke-width="1.6" stroke-linejoin="round" stroke-linecap="round"/><path d="M16 56 H104" stroke="#10131a" stroke-width="1.6"/><g fill="url(#m)" stroke="#10131a" stroke-width="1.6" stroke-linejoin="round" stroke-linecap="round"><rect x="24" y="62" width="30" height="8" rx="2"/><rect x="62" y="62" width="34" height="8" rx="2"/></g></svg>